<?xml version="1.0" encoding="UTF-8"?>
<!DOCTYPE svg PUBLIC "-//W3C//DTD SVG 1.0//EN" "http://www.w3.org/TR/2001/REC-SVG-20010904/DTD/svg10.dtd">
<!-- Creator: CorelDRAW X7 -->
<svg xmlns="http://www.w3.org/2000/svg" xml:space="preserve" width="780px" height="380px" version="1.0" shape-rendering="geometricPrecision" text-rendering="geometricPrecision" image-rendering="optimizeQuality" fill-rule="evenodd" clip-rule="evenodd"
viewBox="0 0 780 380"
 xmlns:xlink="http://www.w3.org/1999/xlink">
 <g id="Слой_x0020_1">
  <metadata id="CorelCorpID_0Corel-Layer"/>
  <path fill="#2E3847" d="M530 258l227 0c-85,56 -214,91 -357,91 -136,0 -258,-32 -344,-83 64,33 144,53 229,53 93,0 178,-23 245,-61z"/>
  <path fill="#F49000" d="M268 122l-228 0c86,-56 214,-91 357,-91 136,0 258,32 344,83 -64,-33 -143,-53 -229,-53 -93,0 -178,23 -244,61z"/>
  <path fill="#2E3847" fill-rule="nonzero" d="M61 152l-15 0 -27 70 15 0 6 -16 28 0 6 16 15 0 -28 -70zm-17 42l0 0 9 -26 10 26 -19 0z"/>
  <path fill="#2E3847" fill-rule="nonzero" d="M97 222l33 0c6,0 10,-1 13,-2 4,-1 6,-3 9,-7 2,-3 3,-7 3,-12 0,-4 -1,-9 -3,-12 -3,-3 -6,-6 -9,-7 -3,-1 -8,-2 -13,-2l-19 0 0 -16 38 0 0 -12 -52 0 0 70zm14 -30l0 0 14 0c6,0 10,1 12,2 3,2 4,4 4,7 0,2 -1,4 -2,6 -2,1 -3,2 -5,3 -2,0 -5,0 -9,0l-14 0 0 -18z"/>
  <path fill="#2E3847" fill-rule="nonzero" d="M205 208c-3,2 -6,3 -10,3 -5,0 -9,-2 -12,-5 -4,-4 -5,-11 -5,-19 0,-9 1,-15 5,-18 3,-4 7,-6 12,-6 4,0 7,1 10,3 3,2 4,5 5,9l14 -4c-1,-5 -4,-10 -7,-13 -5,-5 -12,-7 -21,-7 -10,0 -18,3 -24,10 -6,6 -9,15 -9,27 0,11 3,19 9,26 6,6 14,9 23,9 8,0 14,-2 19,-5 5,-4 8,-10 10,-17l-13 -5c-2,5 -4,9 -6,12z"/>
  <path fill="#2E3847" fill-rule="nonzero" d="M240 214c7,6 15,9 25,9 11,0 19,-3 25,-9 6,-7 9,-16 9,-27 0,-11 -3,-20 -9,-27 -6,-6 -15,-9 -25,-9 -6,0 -11,1 -15,3 -3,1 -6,3 -9,6 -3,3 -5,6 -7,10 -2,4 -3,10 -3,17 0,12 3,20 9,27zm11 -45l0 0c4,-4 8,-6 14,-6 6,0 11,2 14,6 4,4 5,10 5,18 0,8 -1,14 -5,18 -4,4 -8,6 -14,6 -5,0 -10,-2 -14,-6 -3,-4 -5,-10 -5,-18 0,-8 2,-14 5,-18z"/>
  <path fill="#2E3847" fill-rule="nonzero" d="M313 192l0 12c0,3 -1,5 -2,6 -1,1 -3,1 -6,1l-3 0 0 11c5,0 8,1 9,1 5,0 8,-1 11,-3 2,-2 3,-5 4,-8 0,-4 1,-10 1,-18l0 -30 21 0 0 58 14 0 0 -70 -49 0 0 40z"/>
  <path fill="#2E3847" fill-rule="nonzero" d="M376 222l15 0 0 -29 11 0c1,6 2,12 5,17 3,4 7,8 11,10 4,2 10,3 16,3 7,0 13,-1 17,-4 5,-3 9,-7 11,-13 2,-5 4,-11 4,-19 0,-12 -3,-21 -9,-27 -6,-6 -13,-9 -23,-9 -10,0 -18,3 -23,9 -5,5 -8,13 -9,21l-11 0 0 -29 -15 0 0 70zm45 -53l0 0c3,-4 7,-6 12,-6 6,0 10,2 13,6 4,3 5,9 5,17 0,9 -1,15 -4,19 -3,4 -7,7 -13,7 -6,0 -10,-3 -13,-7 -3,-4 -5,-10 -5,-18 0,-8 2,-14 5,-18z"/>
  <polygon fill="#2E3847" fill-rule="nonzero" points="505,222 505,164 526,164 526,152 470,152 470,164 491,164 491,222 "/>
  <path fill="#F49000" fill-rule="nonzero" d="M559 144l-11 82 22 0 1 -15 8 0 1 15 21 0 -12 -82 -30 0zm12 53l0 0c0,-8 2,-19 4,-35 1,14 2,25 3,35l-7 0z"/>
  <path fill="#F49000" fill-rule="nonzero" d="M605 226l24 0c9,0 14,-1 17,-2 3,-1 5,-3 6,-5 1,-3 2,-7 2,-13l0 -7c0,-5 -1,-9 -3,-12 -1,-2 -5,-4 -10,-5 5,-1 8,-3 9,-5 2,-1 2,-5 2,-10 0,-7 -1,-12 -3,-15 -2,-3 -5,-5 -8,-6 -3,-1 -8,-2 -15,-2l-21 0 0 82zm25 -67l0 0c1,0 2,1 2,2 1,1 1,2 1,5 0,5 0,8 -1,9 -1,1 -2,1 -4,1 0,0 -1,0 -2,0l0 -18c2,0 4,0 4,1zm2 31l0 0c0,1 1,3 1,7l0 7c0,3 -1,5 -1,6 -1,1 -3,2 -6,2l0 -23c3,0 5,0 6,1z"/>
  <polygon fill="#F49000" fill-rule="nonzero" points="658,144 658,161 670,161 670,226 691,226 691,161 704,161 704,144 "/>
  <path fill="#F49000" fill-rule="nonzero" d="M757 178c0,-8 0,-14 -1,-18 0,-3 -1,-6 -3,-9 -2,-3 -5,-5 -9,-6 -3,-2 -7,-2 -11,-2 -5,0 -9,0 -12,2 -4,1 -7,4 -9,6 -2,3 -3,6 -3,10 -1,3 -1,9 -1,17l0 14c0,8 0,14 1,17 0,4 1,7 4,10 2,3 4,5 8,6 3,2 7,2 12,2 4,0 8,-1 12,-2 3,-2 6,-4 8,-6 2,-3 3,-6 3,-10 1,-3 1,-9 1,-17l0 -14zm-21 25l0 0c0,4 0,7 -1,9 0,1 -1,1 -2,1 -2,0 -3,0 -3,-1 0,-1 -1,-4 -1,-9l0 -38c0,-4 1,-6 1,-7 1,-1 2,-2 3,-2 1,0 2,1 2,2 1,1 1,3 1,7l0 38z"/>
 </g>
</svg>
