<svg xmlns="http://www.w3.org/2000/svg" xmlns:xlink="http://www.w3.org/1999/xlink" preserveAspectRatio="xMidYMid" width="56" height="65" viewBox="0 0 56 65">
  <defs>
    <style>
      .cls-1 {
        fill: #ffb33b;
        fill-rule: evenodd;
      }
    </style>
  </defs>
  <path d="M48.294,56.273 C39.848,65.119 26.805,67.575 15.663,62.092 C5.251,56.969 -1.086,45.959 0.154,33.743 C1.474,20.734 11.676,10.026 25.295,8.526 C25.295,7.469 25.295,6.476 25.295,5.378 C23.552,5.378 21.826,5.378 20.024,5.378 C20.024,3.540 20.024,1.807 20.024,-0.000 C25.354,-0.000 30.658,-0.000 36.025,-0.000 C36.025,1.750 36.025,3.456 36.025,5.314 C34.286,5.314 32.535,5.314 30.737,5.314 C30.737,6.453 30.737,7.443 30.737,8.552 C35.806,9.126 40.440,10.860 44.754,14.048 C45.477,13.155 46.194,12.268 46.855,11.450 C48.986,13.600 50.937,15.569 53.030,17.680 C52.256,18.366 51.410,19.116 50.589,19.843 C59.671,32.807 56.239,47.953 48.294,56.273 ZM28.011,13.873 C15.652,13.835 5.465,24.022 5.377,36.508 C5.288,49.208 15.430,59.543 28.018,59.579 C40.460,59.614 50.605,49.371 50.656,36.720 C50.706,24.171 40.538,13.911 28.011,13.873 ZM36.185,36.999 C35.841,31.556 32.072,28.295 26.884,28.542 C26.884,24.946 26.884,21.439 26.884,17.935 C36.477,16.704 47.144,25.329 46.746,36.999 C43.227,36.999 39.705,36.999 36.185,36.999 ZM32.244,36.719 C32.237,39.040 30.349,40.945 28.042,40.960 C25.738,40.975 23.821,39.086 23.790,36.771 C23.759,34.436 25.721,32.449 28.044,32.465 C30.324,32.480 32.252,34.432 32.244,36.719 ZM13.602,25.387 C14.355,24.660 15.240,23.806 16.086,22.991 C16.773,23.695 17.628,24.570 18.495,25.457 C17.711,26.206 16.821,27.056 15.896,27.940 C15.165,27.127 14.362,26.233 13.602,25.387 ZM18.351,48.893 C17.660,49.595 16.781,50.487 15.888,51.394 C15.144,50.618 14.312,49.751 13.400,48.801 C14.279,47.980 15.157,47.161 15.973,46.398 C16.726,47.188 17.569,48.072 18.351,48.893 ZM9.299,35.273 C10.550,35.273 11.762,35.273 13.039,35.273 C13.039,36.458 13.039,37.626 13.039,38.929 C11.848,38.929 10.620,38.929 9.299,38.929 C9.299,37.702 9.299,36.530 9.299,35.273 ZM29.470,55.570 C28.265,55.570 27.054,55.570 25.732,55.570 C25.732,54.311 25.732,53.139 25.732,51.877 C26.977,51.877 28.189,51.877 29.470,51.877 C29.470,53.078 29.470,54.277 29.470,55.570 ZM41.685,48.955 C40.955,49.661 40.054,50.533 39.145,51.413 C38.322,50.574 37.502,49.740 36.700,48.923 C37.571,48.088 38.457,47.237 39.276,46.449 C39.985,47.186 40.833,48.068 41.685,48.955 Z" class="cls-1"/>
</svg>
