<svg xmlns="http://www.w3.org/2000/svg" xmlns:xlink="http://www.w3.org/1999/xlink" preserveAspectRatio="xMidYMid" width="65" height="65" viewBox="0 0 65 65">
  <defs>
    <style>
      .cls-1 {
        fill: #ffb33b;
        fill-rule: evenodd;
      }
    </style>
  </defs>
  <path d="M9.339,47.269 C7.622,44.642 6.414,41.962 5.642,39.080 C5.582,38.853 5.203,38.575 4.956,38.558 C4.047,38.495 3.130,38.546 2.217,38.530 C0.711,38.502 0.009,37.807 0.004,36.323 C-0.006,33.740 -0.006,31.157 0.004,28.574 C0.009,27.123 0.695,26.431 2.133,26.408 C3.015,26.394 3.898,26.383 4.778,26.414 C5.288,26.431 5.517,26.285 5.715,25.758 C6.521,23.617 7.396,21.501 8.296,19.398 C8.487,18.954 8.519,18.689 8.148,18.343 C7.342,17.591 6.572,16.801 5.804,16.010 C4.820,14.999 4.799,14.024 5.776,13.033 C7.633,11.147 9.504,9.276 11.389,7.420 C12.370,6.454 13.372,6.484 14.362,7.458 C15.103,8.187 15.854,8.907 16.560,9.670 C16.911,10.049 17.170,9.992 17.609,9.797 C19.926,8.763 22.258,7.759 24.612,6.812 C25.101,6.616 25.322,6.449 25.306,5.907 C25.271,4.680 25.281,3.451 25.300,2.223 C25.324,0.725 26.020,0.022 27.515,0.011 C30.066,-0.006 32.618,-0.005 35.169,0.011 C36.714,0.021 37.411,0.738 37.421,2.281 C37.430,3.696 37.423,5.112 37.423,6.307 C40.414,7.608 43.281,8.855 46.350,10.190 C47.220,9.313 48.298,8.219 49.385,7.134 C50.490,6.029 51.460,6.013 52.560,7.104 C54.373,8.899 56.178,10.702 57.972,12.517 C59.042,13.599 59.038,14.556 57.985,15.625 C56.968,16.656 55.953,17.691 54.905,18.691 C54.508,19.070 54.445,19.355 54.680,19.895 C55.492,21.763 56.261,23.655 56.935,25.576 C57.171,26.248 57.461,26.438 58.127,26.419 C59.701,26.375 61.277,26.393 62.851,26.410 C64.231,26.425 64.962,27.120 64.977,28.502 C65.006,31.116 65.004,33.731 64.978,36.345 C64.964,37.809 64.216,38.515 62.721,38.529 C60.899,38.545 59.077,38.533 57.470,38.533 C56.262,41.378 55.112,44.084 53.879,46.989 C54.827,47.933 55.981,49.078 57.129,50.228 C58.344,51.444 58.345,52.309 57.134,53.524 C55.355,55.308 53.575,57.093 51.789,58.869 C50.709,59.943 49.765,59.953 48.689,58.897 C47.611,57.838 46.535,56.775 45.486,55.687 C45.146,55.334 44.892,55.312 44.434,55.521 C42.183,56.545 39.905,57.509 37.423,58.587 C37.423,59.720 37.426,61.161 37.422,62.601 C37.418,64.341 36.765,64.992 35.023,64.994 C32.534,64.997 30.046,64.999 27.558,64.993 C25.989,64.989 25.322,64.329 25.299,62.751 C25.282,61.523 25.271,60.293 25.306,59.066 C25.323,58.507 25.147,58.277 24.591,58.076 C22.615,57.363 20.663,56.578 18.728,55.759 C18.275,55.568 18.020,55.562 17.678,55.922 C16.834,56.815 15.955,57.674 15.078,58.533 C14.131,59.460 13.106,59.508 12.168,58.593 C10.252,56.723 8.360,54.828 6.488,52.915 C5.546,51.952 5.570,50.967 6.517,50.011 C7.423,49.094 8.365,48.213 9.339,47.269 ZM31.505,18.027 C23.440,18.022 17.007,24.368 16.931,32.403 C16.855,40.325 23.356,46.826 31.404,46.878 C39.247,46.929 45.733,40.438 45.770,32.501 C45.807,24.593 39.339,18.031 31.505,18.027 Z" class="cls-1"/>
</svg>
