<svg xmlns="http://www.w3.org/2000/svg" xmlns:xlink="http://www.w3.org/1999/xlink" preserveAspectRatio="xMidYMid" width="72" height="72" viewBox="0 0 72 72">
  <defs>
    <style>
      .cls-1 {
        fill: #ffb33b;
        fill-rule: evenodd;
      }
    </style>
  </defs>
  <path d="M26.111,39.032 C23.518,36.760 21.657,34.007 20.330,30.883 C20.214,30.610 19.828,30.425 19.533,30.258 C14.411,27.358 13.824,19.562 18.409,15.880 C18.974,15.426 19.396,14.657 19.623,13.951 C21.365,8.536 24.338,4.070 29.598,1.503 C35.832,-1.540 42.899,0.116 47.793,5.607 C49.967,8.047 51.398,10.885 52.396,13.979 C52.617,14.667 53.136,15.374 53.715,15.818 C58.417,19.421 57.832,27.474 52.638,30.268 C52.220,30.492 51.706,30.789 51.535,31.181 C50.236,34.165 48.443,36.788 45.865,39.029 C51.554,41.567 57.065,44.185 62.703,46.499 C69.204,49.166 72.236,53.858 71.992,60.772 C71.923,62.724 71.996,64.680 71.976,66.634 C71.960,68.250 71.031,69.323 69.729,69.285 C68.434,69.247 67.665,68.296 67.641,66.667 C67.599,63.914 67.634,61.158 67.521,58.407 C67.390,55.234 65.806,52.812 62.977,51.457 C58.260,49.198 53.437,47.157 48.656,45.032 C48.529,44.975 48.366,44.995 48.059,44.963 C48.059,47.189 48.064,49.377 48.055,51.565 C48.053,52.115 48.064,52.674 47.970,53.211 C47.657,55.004 46.230,55.699 44.598,54.858 C43.928,54.512 43.297,54.093 42.647,53.710 C42.012,53.337 41.376,52.966 40.546,52.480 C41.322,56.387 42.006,60.068 42.804,63.726 C43.092,65.044 42.858,66.053 41.875,66.979 C40.484,68.288 39.167,69.675 37.794,71.004 C36.440,72.316 35.391,72.337 33.999,71.019 C32.539,69.637 31.030,68.279 29.761,66.735 C29.213,66.069 28.885,64.908 29.021,64.060 C29.621,60.317 30.426,56.605 31.219,52.561 C29.883,53.366 28.800,54.036 27.700,54.678 C25.673,55.863 24.076,54.991 24.042,52.646 C24.006,50.104 24.034,47.561 24.034,44.726 C22.380,45.461 20.972,46.083 19.566,46.709 C16.303,48.161 13.034,49.601 9.779,51.070 C6.204,52.684 4.370,55.404 4.446,59.358 C4.490,61.662 4.471,63.968 4.448,66.272 C4.429,68.202 3.601,69.296 2.222,69.295 C0.839,69.294 0.005,68.184 0.015,66.296 C0.029,63.542 -0.085,60.776 0.130,58.036 C0.517,53.101 2.999,49.446 7.561,47.355 C13.677,44.552 19.836,41.842 26.111,39.032 ZM48.432,16.445 C46.105,16.963 43.896,17.578 41.644,17.906 C40.526,18.068 39.466,17.566 39.251,16.148 C39.205,15.845 38.864,15.534 38.583,15.329 C37.552,14.577 36.489,13.868 35.437,13.144 C34.802,13.157 34.025,13.597 33.261,14.058 C30.336,15.821 27.462,17.678 24.466,19.315 C23.267,19.970 21.801,20.146 20.155,20.629 C20.163,20.611 19.988,20.970 19.874,21.347 C19.127,23.839 20.130,25.672 22.502,26.714 C23.210,27.025 23.703,27.936 24.168,28.654 C25.521,30.739 26.508,33.147 28.183,34.922 C32.670,39.678 39.354,39.671 43.826,34.907 C45.496,33.128 46.462,30.712 47.843,28.647 C48.358,27.877 49.031,26.924 49.825,26.683 C51.495,26.177 52.203,25.126 52.466,23.588 C52.743,21.962 52.551,20.257 51.090,19.429 C49.636,18.605 48.501,17.793 48.432,16.445 ZM23.747,16.108 C24.637,15.603 25.471,15.162 26.273,14.668 C28.713,13.164 31.098,11.565 33.594,10.160 C34.560,9.616 35.749,9.381 36.868,9.213 C37.892,9.059 38.724,9.697 38.820,10.691 C38.960,12.141 39.805,12.380 40.968,12.288 C42.590,12.158 43.990,12.412 44.543,14.404 C45.555,13.804 46.396,13.305 47.213,12.820 C44.858,7.098 39.786,3.786 34.584,4.443 C29.565,5.079 24.519,10.457 23.747,16.108 ZM28.439,49.122 C30.542,47.828 32.416,46.691 34.272,45.528 C35.355,44.849 36.335,44.787 37.476,45.536 C39.387,46.792 41.398,47.898 43.533,49.164 C43.533,46.257 43.533,43.587 43.533,40.742 C38.517,43.398 33.510,43.447 28.439,40.701 C28.439,43.545 28.439,46.177 28.439,49.122 ZM36.004,52.166 C35.927,52.174 35.849,52.182 35.772,52.190 C35.156,55.213 34.689,58.276 33.876,61.245 C33.253,63.520 33.671,65.195 35.649,66.476 C35.726,66.526 35.820,66.549 35.865,66.568 C37.887,65.334 38.896,63.760 37.871,61.363 C37.584,60.691 37.593,59.896 37.443,59.162 C36.969,56.829 36.485,54.497 36.004,52.166 Z" class="cls-1"/>
</svg>
