<svg xmlns="http://www.w3.org/2000/svg" xmlns:xlink="http://www.w3.org/1999/xlink" preserveAspectRatio="xMidYMid" width="91" height="72" viewBox="0 0 91 72">
  <defs>
    <style>
      .cls-1 {
        fill: #ffb33b;
        fill-rule: evenodd;
      }
    </style>
  </defs>
  <path d="M49.543,40.969 C49.543,28.333 49.541,15.697 49.545,3.062 C49.545,0.917 50.764,-0.182 52.901,0.021 C54.451,0.168 56.000,0.330 57.551,0.477 C65.009,1.188 72.466,1.918 79.928,2.586 C81.631,2.738 82.550,3.567 83.097,5.144 C85.542,12.192 88.067,19.213 90.519,26.259 C90.815,27.109 90.972,28.052 90.975,28.953 C91.008,38.146 90.995,47.339 90.995,56.532 C90.995,58.505 91.016,60.479 90.989,62.451 C90.965,64.185 90.021,65.180 88.288,65.307 C87.492,65.365 86.687,65.363 85.889,65.323 C85.177,65.288 84.791,65.524 84.429,66.192 C82.397,69.942 79.182,71.974 74.917,71.966 C70.709,71.957 67.520,69.957 65.487,66.263 C65.111,65.580 64.712,65.315 63.934,65.318 C57.026,65.345 50.117,65.345 43.208,65.318 C42.398,65.315 41.964,65.546 41.548,66.292 C39.337,70.256 35.884,72.160 31.349,71.946 C28.495,71.812 26.115,70.519 24.109,68.440 C23.795,68.721 23.515,68.966 23.239,69.216 C18.484,73.532 10.816,72.753 7.347,67.371 C6.276,65.708 5.232,65.180 3.370,65.290 C0.944,65.434 0.006,64.380 0.004,61.974 C-0.000,56.895 0.003,51.816 0.003,46.737 C0.003,43.345 0.676,42.664 4.029,42.664 C18.604,42.664 33.180,42.664 47.756,42.664 C48.298,42.664 48.841,42.664 49.543,42.664 C49.543,41.964 49.543,41.466 49.543,40.969 ZM85.577,34.335 C83.543,34.054 81.517,33.769 79.489,33.498 C77.405,33.219 75.315,32.976 73.233,32.679 C68.853,32.056 65.408,28.357 64.949,23.927 C64.378,18.422 63.743,12.924 63.129,7.424 C63.092,7.095 62.994,6.772 62.906,6.360 C60.264,6.108 57.633,5.857 54.925,5.598 C54.925,17.909 54.925,30.181 54.925,42.559 C65.127,42.559 75.318,42.559 85.577,42.559 C85.577,39.812 85.577,37.143 85.577,34.335 ZM5.423,59.543 C6.530,55.233 8.954,52.276 13.174,51.091 C17.369,49.912 20.962,51.137 24.079,54.197 C27.238,51.081 30.970,49.841 35.255,51.155 C39.506,52.460 41.900,55.524 42.773,59.889 C49.919,59.889 57.061,59.889 64.294,59.889 C64.828,56.932 66.218,54.475 68.678,52.682 C70.504,51.351 72.571,50.706 74.810,50.649 C79.737,50.523 83.209,53.338 85.634,59.423 C85.634,55.731 85.635,52.129 85.630,48.526 C85.630,48.410 85.564,48.294 85.509,48.111 C58.836,48.111 32.165,48.111 5.423,48.111 C5.423,51.902 5.423,55.623 5.423,59.543 ZM83.677,22.973 C82.019,18.272 80.341,13.578 78.720,8.864 C78.449,8.078 78.090,7.774 77.230,7.712 C74.379,7.508 71.538,7.184 68.496,6.887 C68.600,8.059 68.675,9.122 68.792,10.179 C69.280,14.597 69.776,19.013 70.279,23.428 C70.519,25.543 72.084,27.133 74.207,27.422 C77.790,27.911 81.376,28.390 84.961,28.867 C85.159,28.894 85.363,28.871 85.751,28.871 C85.029,26.817 84.354,24.895 83.677,22.973 ZM32.166,66.675 C35.121,66.645 37.479,64.223 37.451,61.245 C37.423,58.331 35.066,56.012 32.135,56.016 C29.125,56.020 26.784,58.355 26.795,61.342 C26.806,64.307 29.220,66.703 32.166,66.675 ZM10.711,61.402 C10.775,64.303 13.188,66.675 16.075,66.675 C19.024,66.675 21.422,64.224 21.382,61.252 C21.341,58.296 18.998,55.996 16.047,56.016 C13.049,56.036 10.645,58.461 10.711,61.402 ZM69.559,61.235 C69.493,64.145 72.064,66.716 75.001,66.674 C77.870,66.633 80.262,64.233 80.305,61.354 C80.349,58.448 77.909,56.023 74.935,56.016 C72.024,56.009 69.626,58.338 69.559,61.235 Z" class="cls-1"/>
</svg>
