<svg xmlns="http://www.w3.org/2000/svg" xmlns:xlink="http://www.w3.org/1999/xlink" preserveAspectRatio="xMidYMid" width="65" height="66.97" viewBox="0 0 65 66.97">
  <defs>
    <style>
      .cls-1 {
        fill: #ffb33b;
        fill-rule: evenodd;
      }
    </style>
  </defs>
  <path d="M63.108,49.682 C56.258,57.382 47.873,62.755 38.035,65.686 C35.095,66.562 31.819,66.376 28.690,66.548 C24.681,66.769 20.665,66.979 16.653,66.963 C14.129,66.952 11.511,66.862 9.103,66.200 C5.082,65.094 2.878,61.937 1.370,58.210 C-1.905,50.117 1.160,42.193 5.689,38.099 C11.416,32.924 19.497,32.747 25.792,37.659 C26.008,37.828 26.225,37.996 26.487,38.200 C30.455,35.020 34.789,34.658 39.548,35.973 C39.408,30.778 39.298,25.575 39.112,20.374 C39.053,18.733 36.425,15.681 34.984,15.988 C32.807,16.450 30.845,16.293 28.826,15.575 C28.665,15.517 28.393,15.725 28.189,15.838 C24.659,17.785 23.554,17.352 20.976,15.464 C18.585,13.714 18.378,11.047 19.149,8.447 C19.917,5.859 21.275,3.506 23.102,1.461 C24.236,0.191 25.586,-0.372 27.263,0.216 C31.044,1.542 34.853,2.800 38.575,4.272 C39.946,4.814 41.195,5.776 42.348,6.728 C49.573,12.695 54.622,20.272 58.464,28.704 C60.466,33.100 62.386,37.534 64.295,41.972 C65.494,44.760 65.216,47.313 63.108,49.682 ZM61.120,43.239 C60.217,41.127 59.402,38.975 58.436,36.893 C54.418,28.236 50.717,19.419 43.595,12.594 C40.537,9.663 37.470,6.970 33.308,5.773 C31.860,5.357 30.475,4.723 29.025,4.318 C25.350,3.292 26.183,2.542 23.947,6.307 C23.177,7.603 22.667,9.099 22.300,10.568 C22.041,11.603 22.552,12.523 23.576,13.154 C24.613,13.793 25.535,13.565 26.328,12.923 C27.683,11.829 29.042,11.830 30.556,12.485 C31.589,12.933 32.620,13.035 33.777,12.615 C34.480,12.359 35.489,12.437 36.178,12.755 C37.459,13.347 38.680,14.132 39.792,15.006 C41.559,16.395 42.530,18.229 42.565,20.549 C42.623,24.392 42.889,28.235 42.836,32.074 C42.794,35.095 43.542,37.847 44.834,40.519 C43.306,42.294 42.678,42.368 40.871,40.989 C40.523,40.724 40.176,40.458 39.816,40.211 C36.202,37.725 31.322,38.201 28.277,41.347 C26.878,42.793 25.505,44.263 24.081,45.763 C23.184,45.020 22.362,44.341 21.496,43.622 C22.302,42.585 23.075,41.591 23.844,40.601 C19.785,36.811 13.555,36.502 8.986,39.861 C3.386,43.979 1.269,52.803 6.201,60.022 C7.501,61.924 9.315,63.110 11.620,63.323 C13.714,63.517 15.829,63.622 17.930,63.571 C21.903,63.475 25.874,63.277 29.842,63.048 C32.335,62.904 34.958,63.060 37.285,62.331 C46.329,59.497 54.159,54.665 60.458,47.481 C61.667,46.102 61.786,44.799 61.120,43.239 ZM24.839,60.024 C25.328,59.097 25.821,58.166 26.307,57.245 C33.475,59.670 39.306,57.504 44.412,52.276 C45.233,52.789 46.131,53.349 47.024,53.907 C44.095,59.665 32.065,64.295 24.839,60.024 Z" class="cls-1"/>
</svg>
