<svg xmlns="http://www.w3.org/2000/svg" xmlns:xlink="http://www.w3.org/1999/xlink" preserveAspectRatio="xMidYMid" width="76" height="76" viewBox="0 0 76 76">
  <defs>
    <style>
      .cls-1 {
        fill: #ffb33b;
        fill-rule: evenodd;
      }
    </style>
  </defs>
  <path d="M63.098,51.491 C63.098,55.046 63.101,58.403 63.097,61.760 C63.095,63.401 62.739,63.761 61.115,63.764 C58.183,63.769 55.252,63.765 52.320,63.765 C51.902,63.765 51.485,63.765 50.998,63.765 C50.975,64.281 50.943,64.662 50.943,65.043 C50.938,68.014 50.942,70.984 50.940,73.955 C50.938,75.758 50.699,76.001 48.930,76.001 C34.625,76.002 20.319,76.001 6.013,76.001 C4.606,76.001 3.198,76.007 1.791,76.000 C0.364,75.993 0.003,75.635 0.003,74.189 C0.000,58.241 -0.000,42.293 0.003,26.345 C0.003,24.881 0.307,24.596 1.816,24.594 C4.787,24.589 7.758,24.592 10.728,24.592 C11.150,24.592 11.572,24.592 12.159,24.592 C12.159,24.071 12.159,23.657 12.159,23.242 C12.159,20.194 12.155,17.145 12.161,14.096 C12.164,12.622 12.461,12.324 13.963,12.319 C17.168,12.310 20.373,12.316 23.578,12.316 C24.003,12.316 24.428,12.316 24.993,12.316 C25.018,11.814 25.056,11.405 25.057,10.996 C25.062,7.908 25.055,4.820 25.062,1.732 C25.066,0.326 25.387,0.003 26.789,0.003 C42.580,-0.000 58.371,-0.000 74.162,0.003 C75.665,0.003 75.997,0.345 75.998,1.884 C76.000,17.793 76.000,33.702 75.997,49.611 C75.997,51.102 75.636,51.478 74.124,51.485 C70.919,51.501 67.714,51.490 64.509,51.491 C64.085,51.491 63.661,51.491 63.098,51.491 ZM2.577,27.016 C2.577,42.567 2.577,58.013 2.577,73.468 C17.915,73.468 33.142,73.468 48.434,73.468 C48.434,57.951 48.434,42.504 48.434,27.016 C33.121,27.016 17.891,27.016 2.577,27.016 ZM46.653,14.779 C43.507,14.779 40.700,14.752 37.894,14.807 C37.467,14.816 36.939,15.104 36.643,15.431 C34.185,18.147 31.769,20.902 29.345,23.651 C29.130,23.894 28.954,24.172 28.645,24.588 C31.761,24.588 34.675,24.607 37.588,24.562 C37.904,24.558 38.275,24.242 38.516,23.976 C40.008,22.329 41.470,20.657 42.940,18.991 C44.115,17.661 45.287,16.329 46.653,14.779 ZM34.127,14.779 C31.058,14.779 28.299,14.745 25.544,14.809 C25.042,14.821 24.414,15.103 24.076,15.472 C21.528,18.264 19.036,21.107 16.533,23.940 C16.401,24.089 16.334,24.295 16.174,24.591 C19.167,24.591 22.008,24.604 24.848,24.573 C25.150,24.570 25.533,24.392 25.736,24.167 C28.477,21.131 31.191,18.072 34.127,14.779 ZM50.941,47.028 C51.242,46.837 51.379,46.775 51.486,46.678 C54.355,44.097 57.235,41.527 60.070,38.908 C60.389,38.614 60.600,38.044 60.609,37.598 C60.659,35.063 60.637,32.526 60.628,29.991 C60.627,29.712 60.553,29.434 60.489,28.991 C57.342,31.829 54.330,34.533 51.343,37.264 C51.120,37.467 50.961,37.859 50.958,38.165 C50.929,41.051 50.941,43.936 50.941,47.028 ZM60.629,41.563 C57.342,44.520 54.304,47.246 51.281,49.990 C51.103,50.151 50.960,50.453 50.958,50.691 C50.936,53.641 50.944,56.590 50.944,59.539 C51.137,59.539 51.240,59.571 51.281,59.534 C54.271,56.850 57.260,54.165 60.230,51.460 C60.435,51.274 60.610,50.935 60.612,50.666 C60.639,47.742 60.629,44.819 60.629,41.563 ZM41.088,24.585 C43.956,24.585 46.482,24.607 49.008,24.558 C49.328,24.552 49.688,24.221 49.951,23.961 C52.175,21.762 54.386,19.551 56.588,17.330 C57.359,16.552 58.092,15.737 58.993,14.779 C55.909,14.779 53.098,14.770 50.288,14.794 C50.015,14.796 49.659,14.929 49.482,15.127 C46.749,18.179 44.038,21.252 41.088,24.585 ZM50.946,34.262 C51.210,34.145 51.327,34.122 51.403,34.054 C54.335,31.422 57.270,28.791 60.182,26.136 C60.412,25.926 60.607,25.543 60.610,25.238 C60.634,22.467 60.613,19.696 60.594,16.924 C60.593,16.842 60.471,16.761 60.447,16.731 C57.371,19.760 54.313,22.767 51.265,25.784 C51.112,25.936 50.961,26.179 50.960,26.380 C50.939,28.974 50.946,31.569 50.946,34.262 ZM14.649,22.575 C17.009,19.905 19.189,17.439 21.452,14.877 C19.026,14.877 16.834,14.877 14.649,14.877 C14.649,17.408 14.649,19.839 14.649,22.575 ZM60.547,54.317 C57.950,56.660 55.530,58.845 52.926,61.194 C55.647,61.194 58.074,61.194 60.547,61.194 C60.547,58.941 60.547,56.757 60.547,54.317 Z" class="cls-1"/>
</svg>
