<svg xmlns="http://www.w3.org/2000/svg" xmlns:xlink="http://www.w3.org/1999/xlink" preserveAspectRatio="xMidYMid" width="111.031" height="65" viewBox="0 0 111.031 65">
  <defs>
    <style>
      .cls-1 {
        fill: #ffb33b;
        fill-rule: evenodd;
      }
    </style>
  </defs>
  <path d="M14.115,31.955 C9.963,25.673 10.269,19.859 14.858,15.721 C18.973,12.011 25.077,11.905 29.284,15.471 C33.965,19.439 34.512,25.316 30.689,31.462 C32.837,31.890 34.665,32.160 36.815,30.805 C39.250,29.272 42.223,28.604 45.005,27.545 C40.999,23.679 39.014,18.729 40.104,12.807 C40.842,8.800 42.908,5.558 46.143,3.091 C52.451,-1.717 61.430,-0.816 66.869,5.022 C71.460,9.950 73.770,19.731 65.653,27.833 C66.110,27.963 66.499,28.057 66.877,28.184 C69.298,29.001 71.941,29.453 74.073,30.754 C76.190,32.046 78.065,32.050 80.198,31.435 C76.522,24.468 77.074,19.214 81.893,15.311 C85.972,12.007 91.834,12.065 95.821,15.449 C100.559,19.471 100.939,24.671 96.975,31.955 C97.240,32.042 97.485,32.134 97.737,32.203 C105.646,34.361 110.820,41.005 110.965,49.261 C111.021,52.404 110.991,55.549 110.969,58.692 C110.955,60.726 110.329,61.339 108.300,61.342 C101.182,61.350 94.064,61.346 86.945,61.346 C86.352,61.346 85.759,61.346 85.101,61.346 C85.065,61.802 85.030,62.119 85.017,62.436 C84.932,64.480 84.451,64.978 82.464,64.984 C78.249,64.994 74.033,64.986 69.818,64.986 C56.459,64.986 43.099,64.986 29.740,64.986 C26.197,64.986 26.197,64.986 25.857,61.346 C25.286,61.346 24.697,61.346 24.108,61.346 C16.990,61.346 9.872,61.349 2.754,61.343 C0.629,61.341 0.003,60.746 0.020,58.603 C0.049,54.801 -0.113,50.974 0.249,47.201 C0.949,39.930 6.009,34.189 13.011,32.247 C13.320,32.162 13.631,32.083 14.115,31.955 ZM29.850,61.178 C32.239,61.178 34.557,61.178 36.954,61.178 C36.985,60.586 37.030,60.101 37.032,59.616 C37.040,56.692 37.038,53.769 37.040,50.846 C37.041,49.553 37.592,48.651 38.950,48.684 C40.222,48.714 40.724,49.597 40.706,50.819 C40.696,51.537 40.705,52.253 40.705,52.971 C40.705,55.705 40.705,58.439 40.705,61.202 C50.662,61.202 60.384,61.202 70.280,61.202 C70.280,58.044 70.280,54.970 70.281,51.897 C70.281,49.535 70.786,48.639 72.113,48.650 C73.459,48.662 73.948,49.529 73.950,51.919 C73.952,54.989 73.950,58.058 73.950,61.171 C76.488,61.171 78.808,61.171 81.287,61.171 C81.287,57.310 81.193,53.564 81.305,49.824 C81.599,40.096 73.308,29.606 59.217,31.829 C59.686,37.468 60.097,43.124 60.642,48.766 C61.204,54.578 61.262,54.572 57.205,58.497 C57.126,58.573 57.048,58.651 56.969,58.727 C55.950,59.717 54.947,59.666 53.962,58.676 C52.992,57.703 52.060,56.688 51.044,55.766 C50.144,54.948 49.872,54.018 49.988,52.816 C50.420,48.318 50.792,43.814 51.166,39.310 C51.374,36.802 51.542,34.291 51.742,31.609 C50.212,31.609 48.855,31.609 47.497,31.609 C38.280,31.613 30.684,38.351 29.856,47.600 C29.489,51.704 29.730,55.864 29.707,59.999 C29.705,60.370 29.795,60.741 29.850,61.178 ZM55.607,3.704 C48.987,3.595 43.559,8.956 43.503,15.659 C43.447,22.296 48.648,27.747 55.182,27.899 C61.764,28.052 67.248,22.689 67.350,16.001 C67.453,9.261 62.250,3.813 55.607,3.704 ZM96.186,57.586 C96.186,56.791 96.185,56.143 96.186,55.496 C96.192,53.403 96.168,51.309 96.219,49.217 C96.245,48.123 96.928,47.310 97.966,47.499 C98.649,47.625 99.298,48.394 99.774,49.020 C100.016,49.339 99.853,49.980 99.854,50.474 C99.858,52.821 99.856,55.169 99.856,57.549 C102.399,57.549 104.723,57.549 107.212,57.549 C107.212,54.491 107.386,51.518 107.179,48.572 C106.621,40.672 101.015,35.453 93.161,35.370 C89.334,35.330 85.505,35.359 81.677,35.368 C81.212,35.369 80.747,35.434 79.892,35.499 C85.760,42.026 85.091,49.872 85.002,57.586 C88.815,57.586 92.356,57.586 96.186,57.586 ZM31.121,35.474 C25.827,35.474 20.972,35.327 16.130,35.518 C12.012,35.681 8.783,37.774 6.343,41.100 C2.647,46.141 3.975,51.909 3.759,57.555 C6.324,57.555 8.646,57.555 11.130,57.555 C11.130,56.870 11.129,56.278 11.130,55.685 C11.130,53.316 11.126,50.947 11.134,48.577 C11.138,47.338 11.757,46.503 12.982,46.503 C14.224,46.503 14.793,47.368 14.796,48.597 C14.797,49.149 14.799,49.700 14.799,50.251 C14.800,52.658 14.799,55.065 14.799,57.516 C18.627,57.516 22.248,57.516 26.018,57.516 C25.843,49.781 25.280,42.057 31.121,35.474 ZM29.585,24.105 C29.584,19.915 26.360,16.615 22.257,16.605 C18.168,16.595 14.860,19.889 14.801,24.029 C14.741,28.200 18.111,31.624 22.261,31.608 C26.371,31.592 29.586,28.299 29.585,24.105 ZM88.754,31.608 C92.834,31.611 96.145,28.293 96.185,24.160 C96.225,19.991 92.841,16.579 88.693,16.605 C84.595,16.631 81.387,19.946 81.400,24.139 C81.414,28.333 84.635,31.605 88.754,31.608 ZM55.684,34.192 C55.551,34.195 55.418,34.197 55.285,34.199 C54.807,39.951 54.374,45.709 53.821,51.454 C53.668,53.042 54.156,54.081 55.493,54.792 C56.892,54.042 57.340,52.955 57.162,51.386 C56.809,48.268 56.627,45.132 56.364,42.004 C56.145,39.399 55.911,36.796 55.684,34.192 Z" class="cls-1"/>
</svg>
