<svg xmlns="http://www.w3.org/2000/svg" xmlns:xlink="http://www.w3.org/1999/xlink" preserveAspectRatio="xMidYMid" width="79.594" height="106" viewBox="0 0 79.594 106">
  <defs>
    <style>
      .cls-1 {
        fill: #ffb33b;
        fill-rule: evenodd;
      }
    </style>
  </defs>
  <path d="M79.582,102.434 C79.582,105.244 78.857,105.991 76.000,105.992 C55.036,106.001 34.072,105.998 13.109,105.993 C12.609,105.992 12.101,105.967 11.613,105.873 C10.326,105.624 9.683,104.752 9.704,103.505 C9.726,102.247 10.455,101.426 11.711,101.197 C12.252,101.099 12.822,101.149 13.379,101.149 C33.117,101.147 52.854,101.148 72.591,101.148 C73.250,101.148 73.909,101.148 74.717,101.148 C74.717,72.596 74.717,44.305 74.717,15.718 C73.126,15.718 71.592,15.718 70.058,15.718 C69.333,15.717 68.607,15.741 67.883,15.708 C66.071,15.624 64.913,14.598 64.983,13.170 C65.051,11.761 66.148,10.882 67.918,10.871 C70.705,10.855 73.493,10.859 76.281,10.870 C78.778,10.881 79.579,11.675 79.580,14.185 C79.586,29.227 79.583,44.270 79.583,59.312 C79.583,73.686 79.584,88.060 79.582,102.434 ZM33.055,60.351 C33.751,60.194 34.493,60.194 35.215,60.194 C45.477,60.185 55.739,60.186 66.000,60.190 C66.557,60.191 67.115,60.210 67.669,60.260 C69.124,60.390 69.889,61.233 69.934,62.658 C69.977,63.996 68.948,64.964 67.441,65.022 C66.104,65.074 64.764,65.035 63.426,65.035 C59.131,65.036 54.837,65.035 50.543,65.035 C45.077,65.035 39.612,65.045 34.146,65.029 C32.368,65.025 31.300,64.138 31.305,62.681 C31.309,61.499 31.862,60.621 33.055,60.351 ZM34.219,39.795 C39.739,39.783 45.259,39.792 50.779,39.792 C56.132,39.792 61.485,39.786 66.838,39.794 C68.875,39.797 69.977,40.664 69.953,42.204 C69.930,43.718 68.794,44.580 66.772,44.581 C55.955,44.586 45.138,44.587 34.320,44.580 C32.337,44.579 31.226,43.629 31.296,42.054 C31.360,40.624 32.393,39.800 34.219,39.795 ZM34.086,85.476 C31.784,85.464 30.460,83.490 31.731,81.864 C32.242,81.211 33.406,80.751 34.277,80.745 C44.201,80.668 54.126,80.695 64.051,80.697 C65.166,80.697 66.282,80.667 67.396,80.714 C68.954,80.779 69.901,81.668 69.941,83.020 C69.983,84.443 69.006,85.455 67.373,85.466 C61.797,85.501 56.221,85.479 50.646,85.479 C50.646,85.482 50.646,85.484 50.646,85.487 C45.126,85.487 39.606,85.508 34.086,85.476 ZM56.696,21.731 C48.445,21.745 40.193,21.737 31.942,21.737 C28.932,21.737 25.921,21.751 22.911,21.732 C20.062,21.713 19.366,21.001 19.350,18.171 C19.346,17.455 19.349,16.738 19.349,15.872 C14.523,15.872 9.827,15.872 4.851,15.872 C4.851,16.619 4.851,17.372 4.851,18.127 C4.851,46.148 4.851,74.169 4.850,102.191 C4.850,102.747 4.884,103.310 4.821,103.860 C4.674,105.160 3.857,105.871 2.607,105.950 C1.346,106.030 0.466,105.373 0.149,104.136 C0.014,103.611 0.055,103.033 0.055,102.479 C0.052,73.176 0.051,43.874 0.053,14.571 C0.053,11.510 0.703,10.869 3.788,10.867 C8.906,10.866 14.024,10.867 19.235,10.867 C19.644,6.057 19.685,6.020 24.382,6.020 C25.215,6.020 26.049,6.020 27.158,6.020 C27.158,4.890 27.127,3.856 27.165,2.827 C27.234,0.946 28.074,0.033 29.964,0.022 C36.487,-0.018 43.010,-0.022 49.532,0.027 C51.612,0.043 52.422,0.965 52.474,3.042 C52.497,3.972 52.478,4.904 52.478,6.021 C54.161,6.021 55.652,5.989 57.141,6.029 C59.510,6.091 60.268,6.895 60.281,9.335 C60.297,12.344 60.297,15.352 60.282,18.361 C60.269,20.982 59.493,21.726 56.696,21.731 ZM55.368,10.867 C53.749,10.867 52.250,10.882 50.752,10.864 C48.535,10.837 47.724,10.039 47.683,7.857 C47.665,6.886 47.680,5.914 47.680,4.949 C42.292,4.949 37.189,4.949 31.956,4.949 C31.956,5.656 31.957,6.262 31.956,6.869 C31.947,10.392 31.461,10.867 27.867,10.867 C26.665,10.867 25.462,10.867 24.237,10.867 C24.237,12.977 24.237,14.844 24.237,16.794 C34.657,16.794 44.986,16.794 55.368,16.794 C55.368,14.791 55.368,12.882 55.368,10.867 ZM23.859,50.583 C20.020,50.633 16.180,50.637 12.342,50.580 C10.597,50.554 9.730,49.603 9.714,47.803 C9.678,44.023 9.677,40.241 9.714,36.460 C9.732,34.668 10.596,33.825 12.398,33.785 C14.344,33.741 16.293,33.775 18.240,33.775 C20.076,33.775 21.913,33.746 23.749,33.783 C25.617,33.820 26.503,34.539 26.543,36.359 C26.629,40.248 26.624,44.142 26.538,48.031 C26.501,49.716 25.559,50.560 23.859,50.583 ZM21.664,38.691 C19.275,38.691 16.973,38.691 14.664,38.691 C14.664,41.078 14.664,43.338 14.664,45.666 C17.064,45.666 19.354,45.666 21.664,45.666 C21.664,43.260 21.664,40.999 21.664,38.691 ZM23.722,74.691 C25.617,74.708 26.521,75.512 26.561,77.418 C26.641,81.199 26.641,84.982 26.561,88.763 C26.521,90.668 25.615,91.456 23.723,91.494 C21.831,91.533 19.937,91.503 18.045,91.504 C16.208,91.505 14.370,91.533 12.534,91.495 C10.641,91.457 9.730,90.594 9.713,88.759 C9.678,84.977 9.680,81.194 9.712,77.412 C9.728,75.623 10.608,74.710 12.366,74.692 C16.151,74.653 19.937,74.656 23.722,74.691 ZM14.672,86.574 C17.085,86.574 19.379,86.574 21.657,86.574 C21.657,84.170 21.657,81.907 21.657,79.617 C19.275,79.617 16.984,79.617 14.672,79.617 C14.672,82.022 14.672,84.277 14.672,86.574 ZM12.454,54.194 C16.183,54.133 19.915,54.130 23.643,54.195 C25.729,54.232 26.544,55.077 26.579,57.204 C26.639,60.819 26.638,64.436 26.583,68.051 C26.550,70.216 25.650,71.037 23.476,71.049 C19.913,71.067 16.350,71.067 12.787,71.049 C10.539,71.037 9.722,70.183 9.704,67.878 C9.690,66.098 9.701,64.318 9.701,62.539 C9.702,60.702 9.676,58.866 9.709,57.031 C9.743,55.155 10.583,54.224 12.454,54.194 ZM14.688,66.112 C17.073,66.112 19.324,66.112 21.661,66.112 C21.661,63.763 21.661,61.505 21.661,59.156 C19.238,59.156 16.944,59.156 14.688,59.156 C14.688,61.547 14.688,63.797 14.688,66.112 Z" class="cls-1"/>
</svg>
