<svg xmlns="http://www.w3.org/2000/svg" xmlns:xlink="http://www.w3.org/1999/xlink" preserveAspectRatio="xMidYMid" width="22" height="22" viewBox="0 0 22 22">
  <defs>
    <style>
      .cls-1 {
        fill: #fff;
        fill-rule: evenodd;
      }
    </style>
  </defs>
  <path d="M16.000,22.000 L16.000,16.000 L22.000,16.000 L22.000,22.000 L16.000,22.000 ZM16.000,8.000 L22.000,8.000 L22.000,14.000 L16.000,14.000 L16.000,8.000 ZM16.000,-0.000 L22.000,-0.000 L22.000,6.000 L16.000,6.000 L16.000,-0.000 ZM8.000,16.000 L14.000,16.000 L14.000,22.000 L8.000,22.000 L8.000,16.000 ZM8.000,8.000 L14.000,8.000 L14.000,14.000 L8.000,14.000 L8.000,8.000 ZM8.000,-0.000 L14.000,-0.000 L14.000,6.000 L8.000,6.000 L8.000,-0.000 ZM-0.000,16.000 L6.000,16.000 L6.000,22.000 L-0.000,22.000 L-0.000,16.000 ZM-0.000,8.000 L6.000,8.000 L6.000,14.000 L-0.000,14.000 L-0.000,8.000 ZM-0.000,-0.000 L6.000,-0.000 L6.000,6.000 L-0.000,6.000 L-0.000,-0.000 Z" class="cls-1"/>
</svg>
