<svg xmlns="http://www.w3.org/2000/svg" xmlns:xlink="http://www.w3.org/1999/xlink" preserveAspectRatio="xMidYMid" width="34" height="34" viewBox="0 0 34 34">
  <defs>
    <style>
      .cls-1 {
        fill: #ffb33b;
        fill-rule: evenodd;
      }
    </style>
  </defs>
  <path d="M33.370,18.608 C33.148,18.839 32.906,19.050 32.669,19.265 C31.877,19.984 31.646,20.877 32.001,21.897 C32.129,22.265 32.296,22.621 32.406,22.995 C32.738,24.120 32.185,25.281 31.117,25.704 C30.776,25.840 30.417,25.924 30.067,26.035 C29.059,26.357 28.493,27.083 28.406,28.165 C28.377,28.521 28.377,28.883 28.314,29.233 C28.093,30.448 27.080,31.200 25.873,31.062 C25.558,31.026 25.247,30.965 24.932,30.926 C23.815,30.787 23.037,31.200 22.491,32.208 C22.338,32.491 22.193,32.781 22.013,33.046 C21.346,34.027 20.092,34.297 19.091,33.676 C18.791,33.491 18.512,33.273 18.221,33.074 C17.351,32.479 16.476,32.479 15.602,33.064 C15.337,33.242 15.083,33.436 14.816,33.611 C13.726,34.328 12.421,34.035 11.722,32.912 C11.544,32.625 11.400,32.315 11.230,32.022 C10.703,31.111 9.832,30.711 8.811,30.885 C8.417,30.953 8.017,31.027 7.621,31.023 C6.591,31.013 5.699,30.195 5.551,29.154 C5.501,28.801 5.482,28.442 5.463,28.084 C5.407,27.024 4.834,26.253 3.842,25.925 C3.525,25.820 3.199,25.743 2.887,25.627 C1.720,25.194 1.147,23.983 1.537,22.780 C1.636,22.473 1.771,22.179 1.884,21.877 C2.294,20.787 2.084,19.892 1.220,19.116 C0.651,18.606 0.086,18.108 0.010,17.257 C-0.056,16.515 0.118,15.873 0.661,15.357 C0.906,15.125 1.159,14.902 1.398,14.665 C2.098,13.969 2.321,13.144 2.001,12.191 C1.882,11.837 1.718,11.499 1.601,11.144 C1.201,9.939 1.765,8.728 2.931,8.287 C3.227,8.174 3.535,8.095 3.837,8.000 C4.881,7.672 5.438,6.965 5.532,5.846 C5.562,5.490 5.562,5.128 5.624,4.778 C5.839,3.565 6.857,2.803 8.061,2.943 C8.408,2.983 8.751,3.066 9.099,3.107 C10.028,3.218 10.769,2.883 11.284,2.080 C11.494,1.753 11.647,1.389 11.854,1.060 C12.542,-0.031 13.838,-0.321 14.915,0.371 C15.239,0.580 15.541,0.826 15.870,1.026 C16.638,1.496 17.421,1.498 18.191,1.033 C18.492,0.851 18.769,0.629 19.062,0.431 C20.209,-0.343 21.542,-0.040 22.264,1.160 C22.447,1.464 22.594,1.792 22.789,2.089 C23.360,2.955 24.155,3.262 25.167,3.119 C25.719,3.042 26.311,2.968 26.840,3.091 C27.751,3.303 28.269,3.985 28.400,4.940 C28.448,5.294 28.451,5.653 28.482,6.010 C28.567,6.984 29.042,7.669 29.945,8.015 C30.319,8.158 30.712,8.249 31.086,8.391 C31.974,8.728 32.531,9.564 32.575,10.534 C32.472,10.890 32.399,11.258 32.263,11.601 C31.562,13.360 31.696,13.940 33.080,15.233 C33.357,15.493 33.616,15.806 33.785,16.146 C34.181,16.945 33.989,17.961 33.370,18.608 ZM14.660,12.262 C14.097,11.382 13.319,10.859 12.264,10.836 C11.557,10.815 10.956,11.081 10.436,11.545 C8.893,12.925 8.830,15.625 10.302,17.088 C11.501,18.280 13.291,18.192 14.372,16.886 C15.431,15.607 15.558,13.665 14.660,12.262 ZM20.289,10.329 C19.782,10.261 19.487,10.523 19.253,10.951 C17.593,13.982 15.924,17.009 14.258,20.037 C13.841,20.794 13.408,21.542 13.014,22.311 C12.684,22.956 13.077,23.656 13.786,23.684 C14.220,23.718 14.477,23.437 14.686,23.053 C15.490,21.581 16.302,20.113 17.111,18.643 C18.344,16.402 19.584,14.164 20.800,11.913 C20.943,11.650 21.032,11.302 21.001,11.009 C20.960,10.641 20.691,10.383 20.289,10.329 ZM24.468,18.223 C24.035,16.951 22.930,16.102 21.752,16.081 C20.566,16.060 19.467,16.864 18.983,18.142 C18.514,19.379 18.605,20.587 19.285,21.719 C20.393,23.560 22.705,23.672 23.980,21.958 C24.492,21.269 24.717,20.480 24.772,19.608 C24.673,19.146 24.619,18.667 24.468,18.223 ZM21.685,21.303 C21.206,21.298 20.920,20.980 20.733,20.583 C20.399,19.875 20.416,19.158 20.837,18.490 C21.298,17.757 22.092,17.742 22.542,18.478 C22.746,18.811 22.827,19.222 22.954,19.570 C22.848,19.952 22.795,20.274 22.669,20.563 C22.485,20.986 22.185,21.308 21.685,21.303 ZM11.368,15.478 C11.183,15.151 11.112,14.756 11.013,14.465 C11.072,14.163 11.097,13.960 11.151,13.765 C11.338,13.098 11.775,12.686 12.269,12.700 C12.749,12.712 13.201,13.173 13.359,13.811 C13.505,14.400 13.441,14.964 13.129,15.483 C12.662,16.260 11.818,16.269 11.368,15.478 Z" class="cls-1"/>
</svg>
