<svg xmlns="http://www.w3.org/2000/svg" xmlns:xlink="http://www.w3.org/1999/xlink" preserveAspectRatio="xMidYMid" width="55" height="36" viewBox="0 0 55 36">
  <defs>
    <style>
      .cls-1 {
        fill: #1a1b1b;
        fill-rule: evenodd;
      }
    </style>
  </defs>
  <path d="M27.408,35.998 C19.428,35.998 11.447,35.999 3.467,35.996 C3.035,35.995 2.598,35.984 2.171,35.925 C1.057,35.771 0.216,34.934 0.065,33.835 C0.011,33.439 -0.002,33.035 -0.002,32.634 C-0.005,22.873 -0.006,13.114 -0.001,3.353 C-0.001,2.924 0.010,2.490 0.076,2.067 C0.235,1.059 1.073,0.228 2.088,0.073 C2.514,0.008 2.952,-0.002 3.384,-0.002 C19.460,-0.006 35.536,-0.006 51.612,-0.002 C52.016,-0.002 52.423,0.010 52.822,0.063 C53.927,0.212 54.769,1.050 54.926,2.156 C54.982,2.553 54.996,2.957 54.996,3.357 C55.000,13.118 55.000,22.878 54.996,32.638 C54.995,33.067 54.982,33.502 54.914,33.924 C54.751,34.941 53.929,35.757 52.904,35.914 C52.450,35.984 51.983,35.995 51.522,35.995 C43.484,36.000 35.446,35.998 27.408,35.998 ZM51.194,9.309 C50.778,9.601 50.493,9.793 50.216,9.995 C43.266,15.043 36.316,20.092 29.368,25.144 C27.712,26.348 27.281,26.347 25.617,25.137 C18.599,20.035 11.578,14.937 4.557,9.840 C4.339,9.681 4.105,9.545 3.835,9.370 C3.835,17.057 3.835,24.638 3.835,32.208 C19.659,32.208 35.405,32.208 51.194,32.208 C51.194,24.590 51.194,17.030 51.194,9.309 ZM3.871,3.769 C3.566,4.408 3.884,4.741 4.348,5.078 C11.889,10.539 19.424,16.009 26.951,21.489 C27.332,21.766 27.592,21.822 28.005,21.521 C35.575,16.003 43.156,10.499 50.745,5.005 C51.220,4.661 51.356,4.306 51.131,3.769 C35.356,3.769 19.608,3.769 3.871,3.769 Z" class="cls-1"/>
</svg>
