<svg xmlns="http://www.w3.org/2000/svg" xmlns:xlink="http://www.w3.org/1999/xlink" preserveAspectRatio="xMidYMid" width="27" height="34" viewBox="0 0 27 34">
  <defs>
    <style>
      .cls-1 {
        fill: #ffb33b;
        fill-rule: evenodd;
      }
    </style>
  </defs>
  <path d="M26.987,27.274 C26.871,27.535 26.793,27.808 26.643,28.030 C26.253,28.606 26.084,29.225 26.157,29.923 C26.214,30.472 25.994,30.883 25.494,31.111 C24.852,31.404 24.391,31.868 24.113,32.532 C23.893,33.060 23.493,33.315 22.925,33.236 C22.217,33.139 21.599,33.348 21.034,33.765 C20.604,34.082 20.167,34.089 19.741,33.772 C19.145,33.329 18.491,33.147 17.755,33.235 C17.271,33.293 16.903,33.086 16.709,32.624 C16.397,31.879 15.867,31.380 15.140,31.068 C14.706,30.882 14.509,30.521 14.558,30.043 C14.638,29.263 14.474,28.561 14.001,27.929 C13.718,27.550 13.722,27.128 13.983,26.738 C14.416,26.090 14.594,25.389 14.510,24.609 C14.454,24.087 14.695,23.722 15.157,23.521 C15.851,23.218 16.354,22.738 16.650,22.022 C16.855,21.524 17.254,21.315 17.777,21.380 C18.479,21.467 19.105,21.291 19.672,20.864 C20.109,20.536 20.563,20.517 21.006,20.854 C21.586,21.295 22.230,21.466 22.947,21.379 C23.496,21.312 23.881,21.555 24.103,22.061 C24.403,22.745 24.871,23.246 25.548,23.553 C26.005,23.760 26.243,24.129 26.174,24.654 C26.077,25.389 26.287,26.033 26.686,26.636 C26.808,26.821 26.879,27.041 26.987,27.274 ZM22.922,26.451 C22.788,26.402 22.639,26.393 22.496,26.375 C21.268,26.225 21.268,26.225 20.725,25.120 C20.667,25.003 20.619,24.880 20.553,24.769 C20.361,24.445 20.188,24.446 20.003,24.785 C19.848,25.071 19.683,25.357 19.577,25.663 C19.427,26.093 19.159,26.262 18.718,26.287 C18.284,26.312 17.854,26.424 17.274,26.524 C17.536,26.823 17.665,27.033 17.847,27.165 C18.570,27.691 18.914,28.334 18.565,29.240 C18.524,29.344 18.509,29.465 18.512,29.577 C18.515,29.715 18.513,29.939 18.581,29.969 C18.701,30.024 18.888,29.997 19.018,29.937 C19.383,29.770 19.724,29.546 20.093,29.390 C20.243,29.326 20.463,29.323 20.610,29.387 C21.007,29.562 21.378,29.796 21.768,29.987 C21.868,30.036 22.040,30.068 22.107,30.014 C22.182,29.955 22.207,29.785 22.196,29.668 C22.168,29.393 22.131,29.113 22.054,28.848 C21.901,28.325 21.993,27.910 22.443,27.573 C22.674,27.401 22.859,27.165 23.061,26.954 C23.297,26.708 23.187,26.545 22.922,26.451 ZM5.526,25.638 C7.904,25.637 10.283,25.637 12.661,25.637 C12.820,25.637 12.979,25.637 13.235,25.637 C13.080,25.936 12.961,26.145 12.863,26.364 C12.770,26.571 12.699,26.788 12.608,27.026 C12.478,27.033 12.335,27.045 12.193,27.045 C9.927,27.047 7.661,27.046 5.395,27.046 C5.283,27.046 5.166,27.060 5.059,27.035 C4.691,26.948 4.454,26.731 4.466,26.319 C4.478,25.912 4.702,25.689 5.092,25.644 C5.235,25.628 5.381,25.638 5.526,25.638 ZM14.434,22.440 C11.365,22.470 8.295,22.461 5.226,22.456 C4.726,22.456 4.467,22.212 4.464,21.775 C4.462,21.371 4.735,21.071 5.166,21.070 C8.701,21.064 12.235,21.067 15.857,21.067 C15.647,21.448 15.538,21.804 15.305,22.026 C15.081,22.242 14.731,22.438 14.434,22.440 ZM16.526,13.119 C14.647,13.122 12.768,13.121 10.889,13.121 C8.994,13.120 7.099,13.124 5.204,13.117 C4.715,13.116 4.456,12.852 4.465,12.412 C4.472,12.002 4.737,11.751 5.186,11.729 C5.218,11.727 5.250,11.728 5.282,11.728 C9.024,11.728 12.766,11.727 16.508,11.729 C17.056,11.729 17.357,11.991 17.349,12.442 C17.340,12.873 17.050,13.119 16.526,13.119 ZM16.937,17.823 C16.833,17.923 16.605,17.917 16.433,17.917 C12.739,17.922 9.046,17.921 5.352,17.919 C5.225,17.919 5.090,17.919 4.972,17.880 C4.630,17.765 4.433,17.527 4.467,17.143 C4.498,16.788 4.698,16.576 5.041,16.519 C5.198,16.494 5.361,16.496 5.521,16.496 C7.320,16.495 9.118,16.496 10.917,16.496 C12.716,16.496 14.514,16.495 16.313,16.497 C16.489,16.497 16.713,16.455 16.829,16.547 C17.037,16.709 17.289,16.944 17.316,17.174 C17.340,17.377 17.115,17.648 16.937,17.823 ZM20.364,5.650 C19.278,5.650 18.261,5.650 17.192,5.650 C17.192,6.124 17.176,6.579 17.196,7.032 C17.215,7.476 16.989,7.656 16.596,7.691 C16.484,7.701 16.371,7.698 16.259,7.698 C12.676,7.698 9.093,7.699 5.510,7.698 C4.649,7.697 4.575,7.621 4.575,6.755 C4.575,6.399 4.575,6.042 4.575,5.660 C3.512,5.660 2.490,5.660 1.430,5.660 C1.430,14.372 1.430,23.092 1.430,31.879 C1.605,31.879 1.791,31.879 1.976,31.879 C5.913,31.879 9.849,31.879 13.785,31.879 C14.528,31.879 15.356,32.472 15.639,33.239 C15.467,33.239 15.313,33.239 15.159,33.239 C10.451,33.239 5.744,33.239 1.036,33.239 C0.207,33.239 -0.004,33.036 -0.004,32.206 C-0.006,23.197 -0.006,14.189 -0.004,5.181 C-0.004,4.358 0.197,4.160 0.987,4.159 C2.159,4.159 3.330,4.159 4.575,4.159 C4.575,3.845 4.575,3.587 4.575,3.328 C4.577,2.720 4.697,2.592 5.313,2.588 C6.243,2.582 7.174,2.586 8.100,2.586 C8.205,2.300 8.279,2.031 8.398,1.784 C8.922,0.691 9.708,-0.059 10.975,-0.008 C12.214,0.042 13.006,0.816 13.388,1.934 C13.588,2.519 13.854,2.626 14.374,2.596 C15.047,2.557 15.723,2.582 16.398,2.588 C17.026,2.593 17.156,2.733 17.160,3.372 C17.161,3.615 17.160,3.858 17.160,4.159 C18.240,4.159 19.280,4.159 20.320,4.159 C21.710,4.159 21.738,4.190 21.740,5.622 C21.745,10.158 21.750,14.695 21.756,19.231 C21.756,19.410 21.756,19.589 21.756,19.812 C21.296,19.643 20.872,19.487 20.364,19.300 C20.364,14.808 20.364,10.245 20.364,5.650 Z" class="cls-1"/>
</svg>
