<svg xmlns="http://www.w3.org/2000/svg" xmlns:xlink="http://www.w3.org/1999/xlink" preserveAspectRatio="xMidYMid" width="16.969" height="26.03" viewBox="0 0 16.969 26.03">
  <defs>
    <style>
      .cls-1 {
        fill: #1a1b1b;
        fill-rule: evenodd;
      }
    </style>
  </defs>
  <path d="M15.997,12.613 C14.781,15.787 13.184,18.770 11.502,21.708 C10.762,23.000 9.993,24.274 9.217,25.544 C8.826,26.183 8.097,26.197 7.709,25.565 C5.132,21.368 2.661,17.112 0.870,12.493 C0.450,11.411 0.065,10.307 -0.012,9.138 C-0.167,6.762 0.550,4.651 2.142,2.920 C4.582,0.267 7.607,-0.622 11.017,0.476 C14.342,1.547 16.282,3.968 16.867,7.471 C16.925,7.822 16.936,8.181 16.969,8.537 C16.952,9.974 16.499,11.303 15.997,12.613 ZM15.156,7.502 C14.434,3.699 11.104,1.297 7.329,1.872 C4.182,2.352 1.666,5.308 1.663,8.530 C1.662,9.771 2.084,10.910 2.523,12.038 C3.724,15.121 5.296,18.017 6.916,20.886 C7.403,21.749 7.910,22.599 8.444,23.516 C8.555,23.340 8.627,23.237 8.689,23.129 C9.557,21.603 10.447,20.089 11.284,18.547 C12.571,16.175 13.793,13.771 14.692,11.213 C15.114,10.011 15.401,8.797 15.156,7.502 ZM8.440,13.542 C5.787,13.533 3.634,11.351 3.630,8.665 C3.625,5.973 5.821,3.756 8.471,3.776 C11.128,3.796 13.286,5.984 13.287,8.658 C13.288,11.352 11.105,13.551 8.440,13.542 ZM8.460,5.499 C6.762,5.489 5.355,6.908 5.345,8.640 C5.335,10.389 6.730,11.820 8.452,11.829 C10.145,11.837 11.561,10.408 11.568,8.684 C11.575,6.930 10.188,5.509 8.460,5.499 Z" class="cls-1"/>
</svg>
