<svg xmlns="http://www.w3.org/2000/svg" xmlns:xlink="http://www.w3.org/1999/xlink" preserveAspectRatio="xMidYMid" width="33" height="54" viewBox="0 0 33 54">
  <defs>
    <style>
      .cls-1 {
        fill: #1a1b1b;
        fill-rule: evenodd;
      }
    </style>
  </defs>
  <path d="M32.996,46.714 C32.995,50.944 29.911,53.997 25.656,53.998 C19.522,53.999 13.388,54.000 7.254,53.997 C3.115,53.996 0.009,50.919 0.004,46.791 C-0.005,40.186 0.002,33.580 0.001,26.975 C0.001,20.451 0.001,13.927 0.002,7.403 C0.002,3.040 3.032,0.002 7.382,0.001 C13.489,0.000 19.596,-0.000 25.703,0.001 C29.904,0.002 32.995,3.067 32.996,7.245 C32.999,20.402 33.000,33.558 32.996,46.714 ZM28.599,4.722 C27.842,3.837 26.842,3.503 25.692,3.504 C20.709,3.512 15.725,3.508 10.742,3.508 C9.489,3.508 8.235,3.483 6.984,3.516 C5.445,3.557 4.191,4.487 3.850,5.822 C12.287,5.822 20.710,5.822 29.299,5.822 C29.023,5.382 28.852,5.018 28.599,4.722 ZM29.388,9.436 C20.748,9.436 12.173,9.436 3.597,9.436 C3.597,20.002 3.597,30.512 3.597,41.066 C12.200,41.066 20.754,41.066 29.388,41.066 C29.388,30.479 29.388,19.952 29.388,9.436 ZM29.418,44.669 C20.753,44.669 12.180,44.669 3.563,44.669 C3.563,45.559 3.526,46.399 3.571,47.234 C3.670,49.036 5.114,50.471 6.933,50.478 C13.312,50.505 19.691,50.505 26.070,50.478 C27.794,50.470 29.248,49.138 29.403,47.472 C29.487,46.561 29.418,45.636 29.418,44.669 ZM20.453,49.317 C19.118,49.333 17.781,49.321 16.445,49.321 C15.164,49.321 13.882,49.330 12.601,49.319 C11.400,49.308 10.591,48.566 10.612,47.521 C10.633,46.505 11.423,45.794 12.585,45.790 C15.203,45.779 17.820,45.778 20.438,45.790 C21.592,45.796 22.381,46.528 22.386,47.546 C22.392,48.558 21.595,49.304 20.453,49.317 Z" class="cls-1"/>
</svg>
