<svg xmlns="http://www.w3.org/2000/svg" xmlns:xlink="http://www.w3.org/1999/xlink" preserveAspectRatio="xMidYMid" width="24" height="20" viewBox="0 0 24 20">
  <defs>
    <style>
      .cls-1 {
        fill: #131313;
        fill-rule: evenodd;
      }
    </style>
  </defs>
  <path d="M20.952,19.993 C17.949,20.007 14.946,19.997 11.943,19.997 C9.044,19.997 6.145,19.998 3.246,19.996 C1.183,19.994 -0.000,18.819 -0.001,16.769 C-0.003,13.220 -0.003,9.671 -0.001,6.123 C-0.001,4.170 1.167,2.994 3.156,2.956 C4.093,2.938 5.031,2.937 5.968,2.961 C6.318,2.970 6.499,2.849 6.640,2.541 C6.910,1.949 7.225,1.376 7.515,0.792 C7.777,0.262 8.186,-0.003 8.795,-0.000 C10.930,0.009 13.066,0.012 15.200,-0.002 C15.815,-0.005 16.217,0.258 16.476,0.790 C16.755,1.361 17.067,1.916 17.326,2.495 C17.480,2.839 17.683,2.969 18.073,2.963 C19.148,2.944 20.227,2.937 21.299,2.996 C22.773,3.076 23.960,4.254 23.973,5.712 C24.006,9.534 24.009,13.357 23.974,17.180 C23.958,18.831 22.678,19.984 20.952,19.993 ZM21.733,6.040 C21.733,5.378 21.534,5.185 20.863,5.183 C19.613,5.179 18.363,5.166 17.114,5.188 C16.463,5.200 16.026,4.949 15.751,4.367 C15.466,3.762 15.172,3.159 14.834,2.582 C14.739,2.418 14.481,2.252 14.295,2.248 C12.768,2.222 11.240,2.241 9.713,2.227 C9.404,2.223 9.245,2.333 9.119,2.601 C8.835,3.207 8.513,3.795 8.222,4.398 C7.963,4.934 7.557,5.193 6.946,5.186 C5.696,5.171 4.446,5.180 3.197,5.182 C2.429,5.183 2.257,5.356 2.256,6.126 C2.255,9.692 2.255,13.257 2.257,16.823 C2.257,17.635 2.397,17.767 3.238,17.767 C6.154,17.769 9.071,17.768 11.987,17.768 C14.937,17.768 17.888,17.769 20.839,17.767 C21.570,17.767 21.733,17.609 21.733,16.891 C21.736,13.274 21.736,9.657 21.733,6.040 ZM11.997,16.670 C9.114,16.672 6.734,14.308 6.751,11.459 C6.768,8.617 9.121,6.299 11.991,6.296 C14.884,6.294 17.242,8.636 17.234,11.505 C17.226,14.340 14.865,16.669 11.997,16.670 ZM11.999,8.532 C10.316,8.530 8.985,9.838 8.992,11.490 C8.998,13.138 10.344,14.450 12.017,14.439 C13.685,14.428 15.019,13.090 14.999,11.448 C14.979,9.814 13.662,8.534 11.999,8.532 Z" class="cls-1"/>
</svg>
