<svg xmlns="http://www.w3.org/2000/svg" xmlns:xlink="http://www.w3.org/1999/xlink" preserveAspectRatio="xMidYMid" width="106.781" height="106" viewBox="0 0 106.781 106">
  <defs>
    <style>
      .cls-1 {
        fill: #ffb33b;
        fill-rule: evenodd;
      }
    </style>
  </defs>
  <path d="M21.145,65.450 C17.098,63.431 13.373,61.573 9.648,59.716 C7.312,58.551 4.983,57.370 2.635,56.228 C1.203,55.532 -0.011,54.656 0.026,52.890 C0.061,51.219 1.224,50.383 2.601,49.707 C8.121,46.995 13.626,44.251 19.135,41.517 C19.705,41.234 20.269,40.940 21.078,40.526 C20.505,40.188 20.104,39.917 19.675,39.703 C14.121,36.930 8.561,34.168 3.009,31.392 C2.389,31.082 1.749,30.768 1.214,30.338 C-0.402,29.039 -0.401,26.845 1.215,25.543 C1.749,25.112 2.389,24.798 3.010,24.490 C18.902,16.577 34.811,8.696 50.678,0.733 C52.578,-0.221 54.152,-0.265 56.074,0.700 C71.991,8.693 87.953,16.598 103.900,24.531 C104.160,24.660 104.423,24.782 104.679,24.919 C105.937,25.591 106.836,26.532 106.780,28.049 C106.727,29.476 105.856,30.342 104.623,30.952 C98.953,33.758 93.292,36.582 87.629,39.402 C87.062,39.685 86.503,39.984 85.637,40.432 C86.365,40.829 86.879,41.130 87.410,41.395 C93.020,44.194 98.622,47.006 104.250,49.767 C105.643,50.450 106.777,51.274 106.777,52.958 C106.777,54.642 105.644,55.466 104.251,56.149 C98.675,58.885 93.126,61.673 87.569,64.445 C87.012,64.723 86.470,65.032 85.695,65.446 C86.411,65.851 86.927,66.172 87.469,66.442 C93.078,69.240 98.683,72.047 104.310,74.811 C105.708,75.497 106.808,76.355 106.778,78.041 C106.749,79.638 105.683,80.459 104.350,81.122 C88.080,89.203 71.814,97.294 55.567,105.420 C54.080,106.164 52.790,106.192 51.288,105.441 C34.989,97.289 18.668,89.179 2.347,81.071 C1.003,80.404 -0.003,79.509 0.026,77.918 C0.054,76.330 1.107,75.463 2.436,74.806 C8.000,72.052 13.553,69.277 19.108,66.507 C19.674,66.224 20.231,65.924 21.145,65.450 ZM10.315,27.935 C10.730,28.193 10.870,28.295 11.024,28.371 C24.833,35.254 38.637,42.146 52.475,48.970 C53.048,49.253 54.047,49.112 54.667,48.806 C68.137,42.156 81.582,35.454 95.030,28.756 C95.460,28.541 95.862,28.271 96.439,27.931 C95.782,27.577 95.338,27.325 94.882,27.097 C81.548,20.438 68.205,13.797 54.892,7.097 C53.771,6.533 52.932,6.593 51.850,7.136 C38.575,13.787 25.277,20.391 11.987,27.012 C11.487,27.261 11.008,27.551 10.315,27.935 ZM96.490,53.057 C96.132,52.775 96.018,52.648 95.875,52.577 C90.375,49.824 84.885,47.048 79.348,44.372 C78.817,44.115 77.893,44.294 77.305,44.581 C70.113,48.106 62.931,51.652 55.793,55.283 C54.124,56.133 52.710,56.146 51.036,55.294 C43.899,51.662 36.700,48.151 29.552,44.540 C28.618,44.068 27.922,44.068 26.991,44.543 C21.925,47.127 16.818,49.632 11.729,52.173 C11.298,52.388 10.896,52.662 10.362,52.980 C10.744,53.216 10.928,53.352 11.129,53.451 C24.897,60.309 38.660,67.178 52.456,73.978 C53.033,74.263 54.029,74.134 54.649,73.831 C60.963,70.756 67.239,67.603 73.527,64.476 C81.110,60.704 88.694,56.933 96.490,53.057 ZM96.450,78.007 C95.887,77.688 95.510,77.450 95.113,77.251 C90.033,74.700 84.932,72.188 79.880,69.583 C78.880,69.067 78.132,69.113 77.160,69.604 C70.012,73.212 62.819,76.731 55.680,80.355 C54.070,81.173 52.672,81.169 51.075,80.358 C43.883,76.710 36.667,73.107 29.420,69.571 C28.783,69.260 27.726,69.285 27.078,69.596 C21.952,72.055 16.876,74.619 11.788,77.157 C11.347,77.376 10.929,77.640 10.318,77.987 C10.913,78.315 11.295,78.545 11.693,78.744 C25.198,85.470 38.709,92.180 52.196,98.941 C53.160,99.425 53.857,99.313 54.757,98.863 C68.146,92.168 81.553,85.508 94.954,78.835 C95.400,78.613 95.826,78.354 96.450,78.007 Z" class="cls-1"/>
</svg>
