<svg xmlns="http://www.w3.org/2000/svg" xmlns:xlink="http://www.w3.org/1999/xlink" preserveAspectRatio="xMidYMid" width="31" height="26" viewBox="0 0 31 26">
  <defs>
    <style>
      .cls-1 {
        fill: #212121;
        fill-rule: evenodd;
      }
    </style>
  </defs>
  <path d="M26.878,19.242 C25.493,17.149 24.152,15.123 22.754,13.013 C23.655,13.013 24.450,13.013 25.278,13.013 C25.361,12.063 25.196,11.191 24.955,10.337 C23.142,3.914 15.734,1.105 10.159,4.707 C9.801,4.938 9.360,5.122 8.942,5.159 C8.280,5.218 7.703,4.720 7.515,4.084 C7.308,3.384 7.534,2.745 8.160,2.309 C9.247,1.550 10.421,0.960 11.688,0.577 C17.014,-1.037 22.577,0.799 25.901,5.299 C27.450,7.396 28.282,9.773 28.405,12.393 C28.414,12.573 28.434,12.753 28.456,13.013 C29.299,13.013 30.095,13.013 31.000,13.013 C29.603,15.124 28.263,17.148 26.878,19.242 ZM5.719,12.999 C5.681,14.270 5.910,15.429 6.351,16.541 C8.711,22.485 15.570,24.694 20.919,21.235 C21.411,20.916 21.910,20.698 22.493,20.894 C23.088,21.094 23.455,21.514 23.548,22.148 C23.645,22.804 23.395,23.321 22.864,23.689 C21.328,24.753 19.648,25.484 17.808,25.802 C10.995,26.981 4.609,22.783 2.957,16.017 C2.723,15.060 2.649,14.062 2.490,13.007 C1.718,13.007 0.916,13.007 -0.000,13.007 C1.394,10.900 2.737,8.870 4.136,6.755 C5.516,8.839 6.864,10.874 8.272,12.999 C7.371,12.999 6.563,12.999 5.719,12.999 Z" class="cls-1"/>
</svg>
