<svg xmlns="http://www.w3.org/2000/svg" xmlns:xlink="http://www.w3.org/1999/xlink" preserveAspectRatio="xMidYMid" width="74" height="55.97" viewBox="0 0 74 55.97">
  <defs>
    <style>
      .cls-1 {
        fill: #fff;
        fill-rule: evenodd;
      }
    </style>
  </defs>
  <path d="M74.473,53.549 C74.439,55.281 73.418,56.305 71.656,56.440 C71.237,56.473 70.814,56.455 70.393,56.455 C56.787,56.456 43.182,56.457 29.576,56.456 C15.173,56.454 3.679,47.107 0.970,33.195 C-1.937,18.270 9.165,2.956 24.454,0.801 C39.899,-1.377 53.501,7.874 56.832,22.897 C57.250,24.785 57.415,26.759 57.435,28.695 C57.506,35.583 57.463,42.470 57.463,49.358 C57.463,49.806 57.463,50.254 57.463,50.818 C61.317,50.818 64.975,50.818 68.838,50.818 C68.838,49.945 68.821,49.092 68.842,48.242 C68.885,46.439 70.046,45.241 71.701,45.266 C73.312,45.291 74.444,46.459 74.474,48.198 C74.505,49.981 74.508,51.767 74.473,53.549 ZM51.731,49.346 C51.731,42.504 51.734,35.661 51.728,28.819 C51.727,27.949 51.734,27.072 51.637,26.210 C50.202,13.542 38.940,4.738 26.125,6.250 C14.618,7.608 5.763,17.808 6.234,29.165 C6.739,41.378 16.772,50.850 29.205,50.852 C36.194,50.852 43.183,50.852 50.172,50.852 C50.630,50.852 51.087,50.852 51.731,50.852 C51.731,50.247 51.731,49.796 51.731,49.346 ZM28.891,39.648 C22.626,39.585 17.529,34.449 17.606,28.276 C17.683,22.177 22.875,17.193 29.105,17.240 C35.334,17.286 40.416,22.365 40.356,28.486 C40.295,34.723 35.173,39.709 28.891,39.648 ZM28.952,22.851 C25.747,22.887 23.275,25.442 23.340,28.649 C23.400,31.602 25.953,34.039 28.989,34.042 C32.111,34.044 34.773,31.431 34.707,28.432 C34.637,25.316 32.059,22.814 28.952,22.851 Z" class="cls-1"/>
</svg>
