<svg xmlns="http://www.w3.org/2000/svg" xmlns:xlink="http://www.w3.org/1999/xlink" preserveAspectRatio="xMidYMid" width="14" height="14" viewBox="0 0 14 14">
  <defs>
    <style>
      .cls-1 {
        fill: #1a1b1b;
        fill-rule: evenodd;
      }
    </style>
  </defs>
  <path d="M13.734,13.734 C13.390,14.078 12.831,14.078 12.487,13.734 L9.783,11.029 C8.761,11.792 7.498,12.249 6.125,12.249 C2.742,12.249 -0.000,9.507 -0.000,6.124 C-0.000,2.741 2.742,-0.000 6.125,-0.000 C9.508,-0.000 12.250,2.741 12.250,6.124 C12.250,7.498 11.793,8.760 11.030,9.782 L13.734,12.487 C14.078,12.831 14.078,13.389 13.734,13.734 ZM6.125,1.750 C3.709,1.750 1.750,3.709 1.750,6.124 C1.750,8.540 3.709,10.499 6.125,10.499 C8.541,10.499 10.500,8.540 10.500,6.124 C10.500,3.709 8.541,1.750 6.125,1.750 Z" class="cls-1"/>
</svg>
