<svg xmlns="http://www.w3.org/2000/svg" xmlns:xlink="http://www.w3.org/1999/xlink" preserveAspectRatio="xMidYMid" width="59" height="31" viewBox="0 0 59 31">
  <defs>
    <style>
      .cls-1 {
        fill: #ffb33b;
        fill-rule: evenodd;
      }
    </style>
  </defs>
  <path d="M57.055,28.106 C55.826,28.110 54.596,28.078 53.370,28.130 C53.099,28.141 52.732,28.372 52.594,28.610 C51.709,30.137 50.409,30.993 48.661,30.993 C46.879,30.994 45.549,30.139 44.690,28.551 C44.585,28.356 44.314,28.127 44.118,28.126 C39.153,28.103 34.187,28.107 29.248,28.107 C27.986,30.385 26.369,31.293 24.265,30.920 C22.857,30.670 21.804,29.891 21.159,28.622 C20.949,28.210 20.723,28.088 20.289,28.098 C19.061,28.124 17.832,28.112 16.603,28.105 C15.278,28.098 14.745,27.580 14.740,26.276 C14.732,24.030 14.731,21.784 14.740,19.539 C14.745,18.448 15.353,17.743 16.239,17.761 C17.100,17.779 17.678,18.461 17.684,19.511 C17.695,21.345 17.687,23.179 17.687,25.141 C18.704,25.141 19.701,25.159 20.696,25.122 C20.842,25.117 21.022,24.876 21.113,24.704 C21.961,23.108 23.302,22.253 25.080,22.259 C26.856,22.265 28.188,23.129 29.038,24.726 C29.139,24.916 29.422,25.128 29.622,25.130 C32.486,25.156 35.350,25.147 38.274,25.147 C38.274,17.760 38.274,10.411 38.274,2.959 C37.962,2.959 37.645,2.959 37.328,2.959 C25.616,2.959 13.903,2.959 2.191,2.959 C1.918,2.959 1.643,2.974 1.373,2.943 C0.570,2.848 -0.010,2.213 -0.001,1.464 C0.008,0.715 0.594,0.101 1.404,0.014 C1.647,-0.013 1.895,0.001 2.141,0.001 C14.481,0.000 26.821,0.000 39.161,0.001 C40.844,0.001 41.282,0.446 41.283,2.152 C41.284,3.378 41.283,4.604 41.283,5.918 C42.354,5.918 43.356,5.918 44.357,5.918 C46.650,5.918 48.944,5.937 51.237,5.907 C52.028,5.897 52.576,6.178 53.011,6.842 C54.826,9.607 56.684,12.345 58.479,15.123 C58.770,15.575 58.951,16.182 58.959,16.720 C59.003,19.869 58.983,23.019 58.979,26.168 C58.978,27.582 58.459,28.101 57.055,28.106 ZM56.017,17.018 C56.015,16.771 55.870,16.499 55.726,16.282 C54.209,13.979 52.692,11.673 51.130,9.401 C50.945,9.130 50.494,8.909 50.159,8.899 C48.442,8.850 46.723,8.876 45.005,8.876 C43.787,8.876 42.568,8.876 41.332,8.876 C41.332,14.341 41.332,19.713 41.332,25.148 C42.193,25.148 43.007,25.118 43.818,25.159 C44.324,25.186 44.559,25.007 44.807,24.554 C45.635,23.041 46.975,22.246 48.687,22.255 C50.363,22.264 51.655,23.058 52.516,24.517 C52.637,24.721 52.737,24.939 52.833,25.126 C53.905,25.126 54.910,25.126 56.030,25.126 C56.030,22.370 56.038,19.694 56.017,17.018 ZM5.974,5.924 C11.323,5.917 16.673,5.912 22.022,5.927 C22.934,5.930 23.576,6.587 23.577,7.395 C23.578,8.233 22.913,8.864 21.942,8.870 C19.267,8.886 16.593,8.875 13.918,8.876 C11.325,8.876 8.733,8.886 6.140,8.871 C4.864,8.864 4.105,7.877 4.550,6.842 C4.817,6.221 5.320,5.925 5.974,5.924 ZM10.419,11.840 C15.741,11.834 21.063,11.829 26.385,11.842 C27.347,11.844 28.014,12.499 28.001,13.333 C27.988,14.173 27.326,14.783 26.345,14.788 C23.698,14.802 21.051,14.793 18.403,14.793 C15.783,14.793 13.163,14.805 10.543,14.788 C9.274,14.780 8.521,13.771 8.982,12.740 C9.257,12.123 9.765,11.840 10.419,11.840 Z" class="cls-1"/>
</svg>
