<svg xmlns="http://www.w3.org/2000/svg" xmlns:xlink="http://www.w3.org/1999/xlink" preserveAspectRatio="xMidYMid" width="53.969" height="32" viewBox="0 0 53.969 32">
  <defs>
    <style>
      .cls-1 {
        fill: #ffb33b;
        fill-rule: evenodd;
      }
    </style>
  </defs>
  <path d="M53.790,20.354 C52.660,27.057 46.686,32.108 40.079,31.996 C32.940,31.874 27.252,26.851 26.253,19.734 C25.275,12.770 30.090,5.002 38.449,3.967 C38.449,3.607 38.449,3.244 38.449,2.752 C38.100,2.752 37.770,2.768 37.442,2.748 C36.654,2.701 36.144,2.199 36.110,1.459 C36.072,0.654 36.525,0.059 37.364,0.035 C39.151,-0.017 40.941,-0.018 42.728,0.028 C43.575,0.050 44.077,0.695 44.037,1.506 C44.002,2.227 43.483,2.703 42.663,2.749 C42.377,2.765 42.090,2.752 41.750,2.752 C41.750,3.195 41.750,3.578 41.750,4.029 C46.250,4.747 49.781,6.998 52.110,11.001 C53.795,13.899 54.348,17.045 53.790,20.354 ZM40.077,6.557 C33.837,6.531 28.740,11.642 28.699,17.967 C28.659,24.275 33.788,29.448 40.086,29.452 C46.303,29.456 51.452,24.255 51.433,17.990 C51.415,11.673 46.359,6.583 40.077,6.557 ZM42.185,17.395 C42.064,17.556 42.041,17.816 42.029,18.034 C41.968,19.146 41.198,19.954 40.141,19.990 C39.079,20.026 38.204,19.269 38.078,18.205 C37.958,17.191 38.690,16.180 39.740,16.042 C40.186,15.983 40.469,15.853 40.623,15.434 C40.659,15.338 40.726,15.239 40.805,15.177 C42.517,13.835 44.233,12.498 45.948,11.159 C46.042,11.251 46.135,11.343 46.229,11.436 C45.466,12.688 44.738,13.964 43.926,15.183 C43.407,15.962 42.750,16.645 42.185,17.395 ZM48.986,17.133 C49.359,17.203 49.675,17.578 49.911,17.743 C49.840,18.576 49.534,18.874 48.976,18.883 C48.389,18.892 48.097,18.531 48.096,17.991 C48.095,17.439 48.444,17.032 48.986,17.133 ZM40.071,9.839 C39.518,9.847 39.166,9.516 39.163,8.958 C39.160,8.413 39.492,7.985 40.037,8.070 C40.411,8.128 40.737,8.499 40.969,8.654 C40.927,9.495 40.625,9.829 40.071,9.839 ZM40.033,26.112 C40.587,26.094 40.901,26.415 40.979,27.253 C40.755,27.417 40.446,27.804 40.077,27.875 C39.547,27.977 39.183,27.576 39.163,27.027 C39.142,26.469 39.484,26.129 40.033,26.112 ZM30.249,18.029 C30.237,17.483 30.529,17.124 31.102,17.110 C31.663,17.095 32.066,17.424 32.001,17.958 C31.955,18.332 31.584,18.665 31.437,18.895 C30.599,18.882 30.262,18.588 30.249,18.029 ZM22.163,12.725 C18.195,12.739 14.226,12.738 10.258,12.727 C9.300,12.724 8.755,12.238 8.755,11.471 C8.755,10.700 9.306,10.241 10.255,10.239 C12.226,10.235 14.197,10.238 16.168,10.238 C18.166,10.238 20.163,10.234 22.160,10.239 C23.055,10.241 23.614,10.698 23.638,11.425 C23.663,12.176 23.082,12.723 22.163,12.725 ZM22.146,16.477 C23.091,16.479 23.623,17.025 23.550,17.880 C23.490,18.578 23.021,18.976 22.170,18.990 C21.040,19.009 19.910,18.996 18.780,18.996 C14.575,18.996 10.371,18.996 6.167,18.995 C5.930,18.995 5.691,19.011 5.458,18.980 C4.728,18.883 4.220,18.309 4.256,17.647 C4.293,16.967 4.822,16.480 5.591,16.478 C8.376,16.468 11.162,16.474 13.947,16.474 C16.680,16.474 19.413,16.469 22.146,16.477 ZM22.531,22.734 C23.209,22.886 23.576,23.335 23.554,24.041 C23.532,24.770 23.081,25.125 22.404,25.220 C22.197,25.249 21.984,25.232 21.774,25.232 C18.462,25.232 15.150,25.232 11.839,25.232 C8.500,25.232 5.162,25.233 1.824,25.232 C1.588,25.231 1.347,25.251 1.116,25.211 C0.435,25.094 0.022,24.673 0.002,23.976 C-0.017,23.304 0.389,22.892 1.013,22.734 C1.288,22.665 1.588,22.686 1.876,22.686 C8.473,22.684 15.071,22.684 21.668,22.686 C21.956,22.686 22.253,22.672 22.531,22.734 Z" class="cls-1"/>
</svg>
