<svg xmlns="http://www.w3.org/2000/svg" xmlns:xlink="http://www.w3.org/1999/xlink" preserveAspectRatio="xMidYMid" width="85.438" height="106" viewBox="0 0 85.438 106">
  <defs>
    <style>
      .cls-1 {
        fill: #ffb33b;
        fill-rule: evenodd;
      }
    </style>
  </defs>
  <path d="M85.422,104.306 C85.422,104.840 85.422,105.373 85.422,105.998 C56.945,105.998 28.634,105.998 0.146,105.998 C0.121,105.474 0.075,104.949 0.075,104.425 C0.070,98.299 0.286,92.163 0.011,86.049 C-0.261,80.025 4.205,71.644 12.357,69.145 C15.869,68.067 19.484,67.332 23.043,66.403 C23.645,66.246 24.305,66.021 24.758,65.624 C27.365,63.329 28.937,60.434 29.262,56.971 C29.341,56.120 29.021,55.134 28.609,54.357 C27.609,52.471 26.391,50.702 25.378,48.822 C24.958,48.043 24.489,47.789 23.639,47.800 C20.355,47.842 17.071,47.818 13.683,47.818 C13.625,39.097 12.536,30.474 14.456,22.067 C17.449,8.966 29.668,-0.508 44.020,0.014 C56.707,0.476 68.405,10.388 70.845,23.246 C71.250,25.380 71.327,27.588 71.415,29.769 C71.539,32.852 71.573,35.939 71.568,39.025 C71.563,42.237 69.793,44.119 66.578,44.375 C65.390,44.470 64.188,44.472 62.997,44.415 C62.078,44.369 61.660,44.694 61.223,45.550 C59.670,48.595 57.937,51.548 56.320,54.562 C56.035,55.093 55.732,55.811 55.864,56.335 C56.406,58.481 56.871,60.701 57.823,62.671 C58.908,64.920 60.774,66.287 63.475,66.751 C66.938,67.347 70.365,68.310 73.706,69.421 C80.778,71.772 85.422,78.457 85.422,85.927 C85.422,92.054 85.422,98.180 85.422,104.306 ZM66.535,40.992 C67.609,40.996 68.312,40.428 68.339,39.406 C68.412,36.587 68.364,33.764 68.364,30.865 C67.149,30.865 66.078,30.865 65.048,30.865 C64.455,34.319 63.887,37.621 63.308,40.991 C64.352,40.991 65.443,40.988 66.535,40.992 ZM63.789,24.573 C64.675,27.605 64.675,27.606 67.902,27.226 C67.945,27.221 67.982,27.168 68.057,27.110 C68.057,26.703 68.108,26.262 68.049,25.835 C66.107,11.821 54.113,2.319 39.988,3.594 C28.221,4.657 18.225,14.517 17.366,26.330 C16.944,32.126 17.177,37.970 17.125,43.793 C17.123,43.969 17.242,44.145 17.317,44.356 C19.239,44.356 21.112,44.356 22.855,44.356 C22.057,40.579 21.043,36.978 20.570,33.308 C19.110,21.977 26.890,11.263 37.995,9.030 C49.461,6.724 60.521,13.388 63.789,24.573 ZM26.500,22.077 C34.380,23.013 41.557,21.204 47.977,16.530 C51.511,21.953 55.084,23.836 59.420,22.616 C57.339,16.348 48.998,11.505 41.180,12.025 C34.956,12.439 27.281,17.684 26.500,22.077 ZM61.224,33.027 C61.517,30.682 61.442,28.303 60.557,26.052 C54.442,26.888 51.101,25.725 46.803,21.265 C39.921,25.359 32.468,26.152 24.554,25.327 C24.323,26.689 24.018,27.939 23.912,29.206 C23.545,33.558 24.548,37.698 25.992,41.759 C26.942,44.427 26.935,44.430 29.674,44.430 C30.321,44.430 30.998,44.548 31.607,44.396 C32.191,44.249 32.752,43.882 33.240,43.506 C34.129,42.823 34.847,41.810 35.830,41.380 C38.299,40.297 41.129,41.507 42.239,43.894 C43.403,46.397 42.465,49.353 40.111,50.597 C37.595,51.925 34.755,51.121 33.217,48.694 C32.988,48.333 32.562,47.897 32.191,47.860 C31.082,47.750 29.955,47.821 28.582,47.821 C31.056,52.227 33.687,56.106 37.971,58.511 C41.088,60.262 44.288,60.250 47.331,58.384 C48.841,57.458 50.331,56.364 51.508,55.056 C57.143,48.795 60.188,41.326 61.224,33.027 ZM35.946,46.090 C35.922,47.160 36.544,47.769 37.588,47.793 C38.640,47.817 39.266,47.226 39.284,46.153 C39.302,45.084 38.716,44.519 37.663,44.441 C36.590,44.484 35.970,45.027 35.946,46.090 ZM52.432,59.107 C45.979,64.588 39.240,64.673 32.867,59.172 C31.321,62.053 29.834,64.822 28.275,67.725 C32.974,71.038 37.924,74.528 42.917,78.047 C47.765,74.508 52.562,71.006 56.988,67.774 C55.401,64.754 53.923,61.944 52.432,59.107 ZM72.556,72.598 C68.983,71.407 65.279,70.597 61.607,69.730 C60.997,69.587 60.139,69.866 59.582,70.233 C57.838,71.379 56.182,72.661 54.492,73.891 C50.638,76.694 46.783,79.497 42.911,82.313 C37.276,78.286 31.752,74.295 26.163,70.396 C25.477,69.918 24.377,69.601 23.593,69.772 C20.151,70.527 16.700,71.324 13.352,72.414 C7.830,74.213 3.525,79.753 3.473,84.895 C3.419,90.323 3.459,95.751 3.466,101.179 C3.466,101.564 3.534,101.950 3.576,102.394 C8.102,102.394 12.548,102.394 17.139,102.394 C17.139,98.423 17.139,94.559 17.139,90.661 C18.346,90.661 19.407,90.661 20.617,90.661 C20.617,94.629 20.617,98.489 20.617,102.415 C35.428,102.415 50.086,102.415 64.945,102.415 C64.945,98.435 64.945,94.536 64.945,90.634 C66.174,90.634 67.201,90.634 68.432,90.634 C68.432,94.610 68.432,98.505 68.432,102.407 C73.046,102.407 77.454,102.407 82.033,102.407 C82.033,101.778 82.033,101.240 82.033,100.705 C82.033,95.924 81.844,91.134 82.082,86.365 C82.368,80.644 78.435,74.556 72.556,72.598 ZM61.655,82.038 C66.695,82.038 71.693,82.038 76.779,82.038 C76.779,83.130 76.779,84.152 76.779,85.291 C71.758,85.291 66.763,85.291 61.655,85.291 C61.655,84.230 61.655,83.176 61.655,82.038 Z" class="cls-1"/>
</svg>
